<svg width="200" height="207" viewBox="0 0 200 207" fill="none" xmlns="http://www.w3.org/2000/svg">
<mask id="path-1-inside-1_2_18" fill="white">
<rect y="4" width="200" height="200" rx="10"/>
</mask>
<rect y="4" width="200" height="200" rx="10" fill="white" stroke="black" stroke-width="40" mask="url(#path-1-inside-1_2_18)"/>
<path d="M93.6035 110.035V143.082C93.6035 149.527 93.9844 153.6 94.7461 155.299C95.5664 156.939 96.9727 158.258 98.9648 159.254C101.016 160.25 104.736 160.748 110.127 160.748V164H49.5703V160.748C55.0781 160.748 58.7988 160.25 60.7324 159.254C62.7246 158.199 64.1016 156.852 64.8633 155.211C65.6836 153.57 66.0938 149.527 66.0938 143.082V65.7383C66.0938 59.293 65.6836 55.25 64.8633 53.6094C64.1016 51.9102 62.7246 50.5625 60.7324 49.5664C58.7402 48.5703 55.0195 48.0723 49.5703 48.0723V44.8203H101.514C118.623 44.8203 130.898 47.8672 138.34 53.9609C145.781 60.0547 149.502 67.6719 149.502 76.8125C149.502 84.5469 147.1 91.168 142.295 96.6758C137.49 102.184 130.869 105.934 122.432 107.926C116.748 109.332 107.139 110.035 93.6035 110.035ZM93.6035 51.6758V103.18C95.5371 103.297 97.002 103.355 97.998 103.355C105.146 103.355 110.654 101.246 114.521 97.0273C118.389 92.75 120.322 86.1582 120.322 77.252C120.322 68.4043 118.389 61.9297 114.521 57.8281C110.654 53.7266 104.883 51.6758 97.207 51.6758H93.6035Z" fill="black"/>
</svg>
