<svg width="200" height="200" viewBox="0 0 200 200" fill="none" xmlns="http://www.w3.org/2000/svg">
<rect width="200" height="200" rx="20" fill="black"/>
<rect x="20" y="20" width="160" height="160" rx="10" fill="white"/>
<path d="M94.5029 106.029V133.568C94.5029 138.939 94.8203 142.333 95.4551 143.749C96.1387 145.116 97.3105 146.215 98.9707 147.045C100.68 147.875 103.78 148.29 108.272 148.29V151H57.8086V148.29C62.3984 148.29 65.499 147.875 67.1104 147.045C68.7705 146.166 69.918 145.043 70.5527 143.676C71.2363 142.309 71.5781 138.939 71.5781 133.568V69.1152C71.5781 63.7441 71.2363 60.375 70.5527 59.0078C69.918 57.5918 68.7705 56.4687 67.1104 55.6387C65.4502 54.8086 62.3496 54.3936 57.8086 54.3936V51.6836H101.095C115.353 51.6836 125.582 54.2227 131.783 59.3008C137.984 64.3789 141.085 70.7266 141.085 78.3438C141.085 84.7891 139.083 90.3066 135.079 94.8965C131.075 99.4863 125.558 102.611 118.526 104.271C113.79 105.443 105.782 106.029 94.5029 106.029ZM94.5029 57.3965V100.316C96.1143 100.414 97.335 100.463 98.165 100.463C104.122 100.463 108.712 98.7051 111.935 95.1895C115.157 91.625 116.769 86.1318 116.769 78.71C116.769 71.3369 115.157 65.9414 111.935 62.5234C108.712 59.1055 103.902 57.3965 97.5059 57.3965H94.5029Z" fill="black"/>
</svg>
